<svg version="1.1" xmlns="http://www.w3.org/2000/svg" xmlns:xlink="http://www.w3.org/1999/xlink" width="767.4326171875" height="492"><defs/><g><text fill="#eeeeee" stroke="none" font-family="Arial" font-size="24px" font-style="normal" font-weight="normal" text-decoration="none" x="0" y="0">UNREGISTERED</text><text fill="#eeeeee" stroke="none" font-family="Arial" font-size="24px" font-style="normal" font-weight="normal" text-decoration="none" x="0" y="30">UNREGISTERED</text><text fill="#eeeeee" stroke="none" font-family="Arial" font-size="24px" font-style="normal" font-weight="normal" text-decoration="none" x="0" y="60">UNREGISTERED</text><text fill="#eeeeee" stroke="none" font-family="Arial" font-size="24px" font-style="normal" font-weight="normal" text-decoration="none" x="0" y="90">UNREGISTERED</text><text fill="#eeeeee" stroke="none" font-family="Arial" font-size="24px" font-style="normal" font-weight="normal" text-decoration="none" x="0" y="120">UNREGISTERED</text><text fill="#eeeeee" stroke="none" font-family="Arial" font-size="24px" font-style="normal" font-weight="normal" text-decoration="none" x="0" y="150">UNREGISTERED</text><text fill="#eeeeee" stroke="none" font-family="Arial" font-size="24px" font-style="normal" font-weight="normal" text-decoration="none" x="0" y="180">UNREGISTERED</text><text fill="#eeeeee" stroke="none" font-family="Arial" font-size="24px" font-style="normal" font-weight="normal" text-decoration="none" x="0" y="210">UNREGISTERED</text><text fill="#eeeeee" stroke="none" font-family="Arial" font-size="24px" font-style="normal" font-weight="normal" text-decoration="none" x="0" y="240">UNREGISTERED</text><text fill="#eeeeee" stroke="none" font-family="Arial" font-size="24px" font-style="normal" font-weight="normal" text-decoration="none" x="0" y="270">UNREGISTERED</text><text fill="#eeeeee" stroke="none" font-family="Arial" font-size="24px" font-style="normal" font-weight="normal" text-decoration="none" x="0" y="300">UNREGISTERED</text><text fill="#eeeeee" stroke="none" font-family="Arial" font-size="24px" font-style="normal" font-weight="normal" text-decoration="none" x="0" y="330">UNREGISTERED</text><text fill="#eeeeee" stroke="none" font-family="Arial" font-size="24px" font-style="normal" font-weight="normal" text-decoration="none" x="0" y="360">UNREGISTERED</text><text fill="#eeeeee" stroke="none" font-family="Arial" font-size="24px" font-style="normal" font-weight="normal" text-decoration="none" x="0" y="390">UNREGISTERED</text><text fill="#eeeeee" stroke="none" font-family="Arial" font-size="24px" font-style="normal" font-weight="normal" text-decoration="none" x="0" y="420">UNREGISTERED</text><text fill="#eeeeee" stroke="none" font-family="Arial" font-size="24px" font-style="normal" font-weight="normal" text-decoration="none" x="0" y="450">UNREGISTERED</text><text fill="#eeeeee" stroke="none" font-family="Arial" font-size="24px" font-style="normal" font-weight="normal" text-decoration="none" x="0" y="480">UNREGISTERED</text><text fill="#eeeeee" stroke="none" font-family="Arial" font-size="24px" font-style="normal" font-weight="normal" text-decoration="none" x="200" y="0">UNREGISTERED</text><text fill="#eeeeee" stroke="none" font-family="Arial" font-size="24px" font-style="normal" font-weight="normal" text-decoration="none" x="200" y="30">UNREGISTERED</text><text fill="#eeeeee" stroke="none" font-family="Arial" font-size="24px" font-style="normal" font-weight="normal" text-decoration="none" x="200" y="60">UNREGISTERED</text><text fill="#eeeeee" stroke="none" font-family="Arial" font-size="24px" font-style="normal" font-weight="normal" text-decoration="none" x="200" y="90">UNREGISTERED</text><text fill="#eeeeee" stroke="none" font-family="Arial" font-size="24px" font-style="normal" font-weight="normal" text-decoration="none" x="200" y="120">UNREGISTERED</text><text fill="#eeeeee" stroke="none" font-family="Arial" font-size="24px" font-style="normal" font-weight="normal" text-decoration="none" x="200" y="150">UNREGISTERED</text><text fill="#eeeeee" stroke="none" font-family="Arial" font-size="24px" font-style="normal" font-weight="normal" text-decoration="none" x="200" y="180">UNREGISTERED</text><text fill="#eeeeee" stroke="none" font-family="Arial" font-size="24px" font-style="normal" font-weight="normal" text-decoration="none" x="200" y="210">UNREGISTERED</text><text fill="#eeeeee" stroke="none" font-family="Arial" font-size="24px" font-style="normal" font-weight="normal" text-decoration="none" x="200" y="240">UNREGISTERED</text><text fill="#eeeeee" stroke="none" font-family="Arial" font-size="24px" font-style="normal" font-weight="normal" text-decoration="none" x="200" y="270">UNREGISTERED</text><text fill="#eeeeee" stroke="none" font-family="Arial" font-size="24px" font-style="normal" font-weight="normal" text-decoration="none" x="200" y="300">UNREGISTERED</text><text fill="#eeeeee" stroke="none" font-family="Arial" font-size="24px" font-style="normal" font-weight="normal" text-decoration="none" x="200" y="330">UNREGISTERED</text><text fill="#eeeeee" stroke="none" font-family="Arial" font-size="24px" font-style="normal" font-weight="normal" text-decoration="none" x="200" y="360">UNREGISTERED</text><text fill="#eeeeee" stroke="none" font-family="Arial" font-size="24px" font-style="normal" font-weight="normal" text-decoration="none" x="200" y="390">UNREGISTERED</text><text fill="#eeeeee" stroke="none" font-family="Arial" font-size="24px" font-style="normal" font-weight="normal" text-decoration="none" x="200" y="420">UNREGISTERED</text><text fill="#eeeeee" stroke="none" font-family="Arial" font-size="24px" font-style="normal" font-weight="normal" text-decoration="none" x="200" y="450">UNREGISTERED</text><text fill="#eeeeee" stroke="none" font-family="Arial" font-size="24px" font-style="normal" font-weight="normal" text-decoration="none" x="200" y="480">UNREGISTERED</text><text fill="#eeeeee" stroke="none" font-family="Arial" font-size="24px" font-style="normal" font-weight="normal" text-decoration="none" x="400" y="0">UNREGISTERED</text><text fill="#eeeeee" stroke="none" font-family="Arial" font-size="24px" font-style="normal" font-weight="normal" text-decoration="none" x="400" y="30">UNREGISTERED</text><text fill="#eeeeee" stroke="none" font-family="Arial" font-size="24px" font-style="normal" font-weight="normal" text-decoration="none" x="400" y="60">UNREGISTERED</text><text fill="#eeeeee" stroke="none" font-family="Arial" font-size="24px" font-style="normal" font-weight="normal" text-decoration="none" x="400" y="90">UNREGISTERED</text><text fill="#eeeeee" stroke="none" font-family="Arial" font-size="24px" font-style="normal" font-weight="normal" text-decoration="none" x="400" y="120">UNREGISTERED</text><text fill="#eeeeee" stroke="none" font-family="Arial" font-size="24px" font-style="normal" font-weight="normal" text-decoration="none" x="400" y="150">UNREGISTERED</text><text fill="#eeeeee" stroke="none" font-family="Arial" font-size="24px" font-style="normal" font-weight="normal" text-decoration="none" x="400" y="180">UNREGISTERED</text><text fill="#eeeeee" stroke="none" font-family="Arial" font-size="24px" font-style="normal" font-weight="normal" text-decoration="none" x="400" y="210">UNREGISTERED</text><text fill="#eeeeee" stroke="none" font-family="Arial" font-size="24px" font-style="normal" font-weight="normal" text-decoration="none" x="400" y="240">UNREGISTERED</text><text fill="#eeeeee" stroke="none" font-family="Arial" font-size="24px" font-style="normal" font-weight="normal" text-decoration="none" x="400" y="270">UNREGISTERED</text><text fill="#eeeeee" stroke="none" font-family="Arial" font-size="24px" font-style="normal" font-weight="normal" text-decoration="none" x="400" y="300">UNREGISTERED</text><text fill="#eeeeee" stroke="none" font-family="Arial" font-size="24px" font-style="normal" font-weight="normal" text-decoration="none" x="400" y="330">UNREGISTERED</text><text fill="#eeeeee" stroke="none" font-family="Arial" font-size="24px" font-style="normal" font-weight="normal" text-decoration="none" x="400" y="360">UNREGISTERED</text><text fill="#eeeeee" stroke="none" font-family="Arial" font-size="24px" font-style="normal" font-weight="normal" text-decoration="none" x="400" y="390">UNREGISTERED</text><text fill="#eeeeee" stroke="none" font-family="Arial" font-size="24px" font-style="normal" font-weight="normal" text-decoration="none" x="400" y="420">UNREGISTERED</text><text fill="#eeeeee" stroke="none" font-family="Arial" font-size="24px" font-style="normal" font-weight="normal" text-decoration="none" x="400" y="450">UNREGISTERED</text><text fill="#eeeeee" stroke="none" font-family="Arial" font-size="24px" font-style="normal" font-weight="normal" text-decoration="none" x="400" y="480">UNREGISTERED</text><text fill="#eeeeee" stroke="none" font-family="Arial" font-size="24px" font-style="normal" font-weight="normal" text-decoration="none" x="600" y="0">UNREGISTERED</text><text fill="#eeeeee" stroke="none" font-family="Arial" font-size="24px" font-style="normal" font-weight="normal" text-decoration="none" x="600" y="30">UNREGISTERED</text><text fill="#eeeeee" stroke="none" font-family="Arial" font-size="24px" font-style="normal" font-weight="normal" text-decoration="none" x="600" y="60">UNREGISTERED</text><text fill="#eeeeee" stroke="none" font-family="Arial" font-size="24px" font-style="normal" font-weight="normal" text-decoration="none" x="600" y="90">UNREGISTERED</text><text fill="#eeeeee" stroke="none" font-family="Arial" font-size="24px" font-style="normal" font-weight="normal" text-decoration="none" x="600" y="120">UNREGISTERED</text><text fill="#eeeeee" stroke="none" font-family="Arial" font-size="24px" font-style="normal" font-weight="normal" text-decoration="none" x="600" y="150">UNREGISTERED</text><text fill="#eeeeee" stroke="none" font-family="Arial" font-size="24px" font-style="normal" font-weight="normal" text-decoration="none" x="600" y="180">UNREGISTERED</text><text fill="#eeeeee" stroke="none" font-family="Arial" font-size="24px" font-style="normal" font-weight="normal" text-decoration="none" x="600" y="210">UNREGISTERED</text><text fill="#eeeeee" stroke="none" font-family="Arial" font-size="24px" font-style="normal" font-weight="normal" text-decoration="none" x="600" y="240">UNREGISTERED</text><text fill="#eeeeee" stroke="none" font-family="Arial" font-size="24px" font-style="normal" font-weight="normal" text-decoration="none" x="600" y="270">UNREGISTERED</text><text fill="#eeeeee" stroke="none" font-family="Arial" font-size="24px" font-style="normal" font-weight="normal" text-decoration="none" x="600" y="300">UNREGISTERED</text><text fill="#eeeeee" stroke="none" font-family="Arial" font-size="24px" font-style="normal" font-weight="normal" text-decoration="none" x="600" y="330">UNREGISTERED</text><text fill="#eeeeee" stroke="none" font-family="Arial" font-size="24px" font-style="normal" font-weight="normal" text-decoration="none" x="600" y="360">UNREGISTERED</text><text fill="#eeeeee" stroke="none" font-family="Arial" font-size="24px" font-style="normal" font-weight="normal" text-decoration="none" x="600" y="390">UNREGISTERED</text><text fill="#eeeeee" stroke="none" font-family="Arial" font-size="24px" font-style="normal" font-weight="normal" text-decoration="none" x="600" y="420">UNREGISTERED</text><text fill="#eeeeee" stroke="none" font-family="Arial" font-size="24px" font-style="normal" font-weight="normal" text-decoration="none" x="600" y="450">UNREGISTERED</text><text fill="#eeeeee" stroke="none" font-family="Arial" font-size="24px" font-style="normal" font-weight="normal" text-decoration="none" x="600" y="480">UNREGISTERED</text><g transform="translate(-46,-117) scale(1,1)"><rect fill="#C0C0C0" stroke="none" x="128" y="134" width="106.4326171875" height="32" opacity="0.2"/></g><g transform="translate(-46,-117) scale(1,1)"><rect fill="#ffffff" stroke="none" x="121" y="127" width="106.4326171875" height="32"/></g><g transform="translate(-46,-117) scale(1,1)"><path fill="none" stroke="#000000" d="M 121 127 L 227.4326171875 127 L 227.4326171875 159 L 121 159 L 121 127 Z Z" stroke-miterlimit="10"/></g><g transform="translate(-46,-117) scale(1,1)"><g><path fill="none" stroke="none"/><text fill="#000000" stroke="none" font-family="Arial" font-size="13px" font-style="normal" font-weight="normal" text-decoration="none" x="174.21630859375" y="138"></text></g></g><g transform="translate(-46,-117) scale(1,1)"><g><path fill="none" stroke="none"/><text fill="#000000" stroke="none" font-family="Arial" font-size="13px" font-style="normal" font-weight="normal" text-decoration="none" x="174.21630859375" y="138"></text></g></g><g transform="translate(-46,-117) scale(1,1)"><g><path fill="none" stroke="none"/><text fill="#000000" stroke="none" font-family="Arial" font-size="13px" font-style="normal" font-weight="normal" text-decoration="none" x="174.21630859375" y="138"></text></g></g><g transform="translate(-46,-117) scale(1,1)"><g><path fill="none" stroke="none"/><text fill="#000000" stroke="none" font-family="Arial" font-size="13px" font-style="normal" font-weight="normal" text-decoration="none" x="40.5" y="69"></text></g></g><g transform="translate(-46,-117) scale(1,1)"><g><path fill="none" stroke="none"/><text fill="#000000" stroke="none" font-family="Arial" font-size="13px" font-style="normal" font-weight="normal" text-decoration="none" x="174.21630859375" y="138"></text></g></g><g transform="translate(-46,-117) scale(1,1)"><g><path fill="none" stroke="none"/><text fill="#000000" stroke="none" font-family="Arial" font-size="13px" font-style="normal" font-weight="normal" text-decoration="none" x="157.59814453125" y="148">Client</text></g></g><g transform="translate(-46,-117) scale(1,1)"><g><path fill="none" stroke="none"/><text fill="#000000" stroke="none" font-family="Arial" font-size="13px" font-style="normal" font-weight="normal" text-decoration="none" x="-7.5" y="-35"></text></g></g><g transform="translate(-46,-117) scale(1,1)"><path fill="#C0C0C0" stroke="none" d="M 162 270 L 215.18994140625 270 Q 225.18994140625 270 225.18994140625 280 L 225.18994140625 341 Q 225.18994140625 351 215.18994140625 351 L 162 351 Q 152 351 152 341 L 152 280 Q 152 270 162 270 Z" opacity="0.2"/></g><g transform="translate(-46,-117) scale(1,1)"><path fill="#ffffff" stroke="none" d="M 155 263 L 208.18994140625 263 Q 218.18994140625 263 218.18994140625 273 L 218.18994140625 334 Q 218.18994140625 344 208.18994140625 344 L 155 344 Q 145 344 145 334 L 145 273 Q 145 263 155 263 Z"/></g><g transform="translate(-46,-117) scale(1,1)"><path fill="none" stroke="#000000" d="M 155 263 L 208.18994140625 263 Q 218.18994140625 263 218.18994140625 273 L 218.18994140625 334 Q 218.18994140625 344 208.18994140625 344 L 155 344 Q 145 344 145 334 L 145 273 Q 145 263 155 263 Z" stroke-miterlimit="10"/></g><g transform="translate(-46,-117) scale(1,1)"><path fill="none" stroke="#000000" d="M 145 286 L 218.18994140625 286" stroke-miterlimit="10"/></g><g transform="translate(-46,-117) scale(1,1)"><g><path fill="none" stroke="none"/><text fill="#000000" stroke="none" font-family="Arial" font-size="13px" font-style="normal" font-weight="normal" text-decoration="none" x="163.529541015625" y="305.5">create</text><text fill="#000000" stroke="none" font-family="Arial" font-size="13px" font-style="normal" font-weight="normal" text-decoration="none" x="169.6708984375" y="317.5">new</text><text fill="#000000" stroke="none" font-family="Arial" font-size="13px" font-style="normal" font-weight="normal" text-decoration="none" x="164.976806640625" y="332">Client</text></g></g><g transform="translate(-46,-117) scale(1,1)"><g><path fill="none" stroke="none"/><text fill="#000000" stroke="none" font-family="Arial" font-size="13px" font-style="normal" font-weight="normal" text-decoration="none" x="181.594970703125" y="274"></text></g></g><g transform="translate(-46,-117) scale(1,1)"><path fill="none" stroke="#000000" d="M 163 159 L 163 263" stroke-miterlimit="10"/></g><g transform="translate(-46,-117) scale(1,1)"><path fill="#000000" stroke="none" d="M 158.790482243984 252.83732514237585 L 163 263 L 167.209517756016 252.83732514237585"/></g><g transform="translate(-46,-117) scale(1,1)"><path fill="none" stroke="#000000" d="M 158.790482243984 252.83732514237585 L 163 263 L 167.209517756016 252.83732514237585 L 158.790482243984 252.83732514237585" stroke-miterlimit="10"/></g><g transform="translate(-46,-117) scale(1,1)"><g><path fill="none" stroke="none"/><text fill="#000000" stroke="none" font-family="Arial" font-size="13px" font-style="normal" font-weight="normal" text-decoration="none" x="65.61181640625" y="209">Client details</text></g></g><g transform="translate(-46,-117) scale(1,1)"><path fill="#C0C0C0" stroke="none" d="M 378 486 L 454 486 Q 464 486 464 496 L 464 544 Q 464 554 454 554 L 378 554 Q 368 554 368 544 L 368 496 Q 368 486 378 486 Z" opacity="0.2"/></g><g transform="translate(-46,-117) scale(1,1)"><path fill="#ffffff" stroke="none" d="M 371 479 L 447 479 Q 457 479 457 489 L 457 537 Q 457 547 447 547 L 371 547 Q 361 547 361 537 L 361 489 Q 361 479 371 479 Z"/></g><g transform="translate(-46,-117) scale(1,1)"><path fill="none" stroke="#000000" d="M 371 479 L 447 479 Q 457 479 457 489 L 457 537 Q 457 547 447 547 L 371 547 Q 361 547 361 537 L 361 489 Q 361 479 371 479 Z" stroke-miterlimit="10"/></g><g transform="translate(-46,-117) scale(1,1)"><path fill="none" stroke="#000000" d="M 361 502 L 457 502" stroke-miterlimit="10"/></g><g transform="translate(-46,-117) scale(1,1)"><g><path fill="none" stroke="none"/><text fill="#000000" stroke="none" font-family="Arial" font-size="13px" font-style="normal" font-weight="normal" text-decoration="none" x="386.595947265625" y="522">Renting</text><text fill="#000000" stroke="none" font-family="Arial" font-size="13px" font-style="normal" font-weight="normal" text-decoration="none" x="392.140625" y="535">Office</text></g></g><g transform="translate(-46,-117) scale(1,1)"><g><path fill="none" stroke="none"/><text fill="#000000" stroke="none" font-family="Arial" font-size="13px" font-style="normal" font-weight="normal" text-decoration="none" x="409" y="490"></text></g></g><g transform="translate(-46,-117) scale(1,1)"><rect fill="#C0C0C0" stroke="none" x="136" y="438" width="106.4326171875" height="168" opacity="0.2"/></g><g transform="translate(-46,-117) scale(1,1)"><rect fill="#ffffff" stroke="none" x="129" y="431" width="106.4326171875" height="168"/></g><g transform="translate(-46,-117) scale(1,1)"><path fill="none" stroke="#000000" d="M 129 431 L 235.4326171875 431 L 235.4326171875 599 L 129 599 L 129 431 Z Z" stroke-miterlimit="10"/></g><g transform="translate(-46,-117) scale(1,1)"><g><path fill="none" stroke="none"/><text fill="#000000" stroke="none" font-family="Arial" font-size="13px" font-style="normal" font-weight="normal" text-decoration="none" x="182.21630859375" y="442"></text></g></g><g transform="translate(-46,-117) scale(1,1)"><g><path fill="none" stroke="none"/><text fill="#000000" stroke="none" font-family="Arial" font-size="13px" font-style="normal" font-weight="normal" text-decoration="none" x="182.21630859375" y="442"></text></g></g><g transform="translate(-46,-117) scale(1,1)"><g><path fill="none" stroke="none"/><text fill="#000000" stroke="none" font-family="Arial" font-size="13px" font-style="normal" font-weight="normal" text-decoration="none" x="182.21630859375" y="442"></text></g></g><g transform="translate(-46,-117) scale(1,1)"><g><path fill="none" stroke="none"/><text fill="#000000" stroke="none" font-family="Arial" font-size="13px" font-style="normal" font-weight="normal" text-decoration="none" x="40.5" y="69"></text></g></g><g transform="translate(-46,-117) scale(1,1)"><g><path fill="none" stroke="none"/><text fill="#000000" stroke="none" font-family="Arial" font-size="13px" font-style="normal" font-weight="normal" text-decoration="none" x="182.21630859375" y="442"></text></g></g><g transform="translate(-46,-117) scale(1,1)"><g><path fill="none" stroke="none"/><text fill="#000000" stroke="none" font-family="Arial" font-size="13px" font-style="normal" font-weight="normal" text-decoration="none" x="165.59814453125" y="452">Client</text></g></g><g transform="translate(-46,-117) scale(1,1)"><g><path fill="none" stroke="none"/><text fill="#000000" stroke="none" font-family="Arial" font-size="13px" font-style="normal" font-weight="normal" text-decoration="none" x="40.5" y="61"></text></g></g><g transform="translate(-46,-117) scale(1,1)"><path fill="none" stroke="#000000" d="M 235 463 L 385 463 M 385 463 A 8 8 0 0 1 393 471 L 393 479" stroke-miterlimit="10"/></g><g transform="translate(-46,-117) scale(1,1)"><path fill="#000000" stroke="none" d="M 388.790482243984 468.83732514237585 L 393 479 L 397.209517756016 468.83732514237585"/></g><g transform="translate(-46,-117) scale(1,1)"><path fill="none" stroke="#000000" d="M 388.790482243984 468.83732514237585 L 393 479 L 397.209517756016 468.83732514237585 L 388.790482243984 468.83732514237585" stroke-miterlimit="10"/></g><g transform="translate(-46,-117) scale(1,1)"><g><path fill="none" stroke="none"/><text fill="#000000" stroke="none" font-family="Arial" font-size="13px" font-style="normal" font-weight="normal" text-decoration="none" x="240.5" y="457">Details of cubicles required </text></g></g><g transform="translate(-46,-117) scale(1,1)"><path fill="none" stroke="#000000" d="M 235 543 L 361 543" stroke-miterlimit="10"/></g><g transform="translate(-46,-117) scale(1,1)"><path fill="#000000" stroke="none" d="M 350.83732514237585 547.209517756016 L 361 543 L 350.83732514237585 538.790482243984"/></g><g transform="translate(-46,-117) scale(1,1)"><path fill="none" stroke="#000000" d="M 350.83732514237585 547.209517756016 L 361 543 L 350.83732514237585 538.790482243984 L 350.83732514237585 547.209517756016" stroke-miterlimit="10"/></g><g transform="translate(-46,-117) scale(1,1)"><g><path fill="none" stroke="none"/><text fill="#000000" stroke="none" font-family="Arial" font-size="13px" font-style="normal" font-weight="normal" text-decoration="none" x="244.5" y="533">Selecting Location</text></g></g><g transform="translate(-46,-117) scale(1,1)"><path fill="none" stroke="#000000" d="M 235 575 L 377 575 M 377 575 A 8 8 0 0 0 385 567 L 385 547" stroke-miterlimit="10"/></g><g transform="translate(-46,-117) scale(1,1)"><path fill="#000000" stroke="none" d="M 389.209517756016 557.1626748576241 L 385 547 L 380.790482243984 557.1626748576241"/></g><g transform="translate(-46,-117) scale(1,1)"><path fill="none" stroke="#000000" d="M 389.209517756016 557.1626748576241 L 385 547 L 380.790482243984 557.1626748576241 L 389.209517756016 557.1626748576241" stroke-miterlimit="10"/></g><g transform="translate(-46,-117) scale(1,1)"><g><path fill="none" stroke="none"/><text fill="#000000" stroke="none" font-family="Arial" font-size="13px" font-style="normal" font-weight="normal" text-decoration="none" x="255.5" y="594">Duration of the stay</text></g></g><g transform="translate(-46,-117) scale(1,1)"><rect fill="#C0C0C0" stroke="none" x="704" y="318" width="106.4326171875" height="32" opacity="0.2"/></g><g transform="translate(-46,-117) scale(1,1)"><rect fill="#ffffff" stroke="none" x="697" y="311" width="106.4326171875" height="32"/></g><g transform="translate(-46,-117) scale(1,1)"><path fill="none" stroke="#000000" d="M 697 311 L 803.4326171875 311 L 803.4326171875 343 L 697 343 L 697 311 Z Z" stroke-miterlimit="10"/></g><g transform="translate(-46,-117) scale(1,1)"><g><path fill="none" stroke="none"/><text fill="#000000" stroke="none" font-family="Arial" font-size="13px" font-style="normal" font-weight="normal" text-decoration="none" x="750.21630859375" y="322"></text></g></g><g transform="translate(-46,-117) scale(1,1)"><g><path fill="none" stroke="none"/><text fill="#000000" stroke="none" font-family="Arial" font-size="13px" font-style="normal" font-weight="normal" text-decoration="none" x="750.21630859375" y="322"></text></g></g><g transform="translate(-46,-117) scale(1,1)"><g><path fill="none" stroke="none"/><text fill="#000000" stroke="none" font-family="Arial" font-size="13px" font-style="normal" font-weight="normal" text-decoration="none" x="750.21630859375" y="322"></text></g></g><g transform="translate(-46,-117) scale(1,1)"><g><path fill="none" stroke="none"/><text fill="#000000" stroke="none" font-family="Arial" font-size="13px" font-style="normal" font-weight="normal" text-decoration="none" x="40.5" y="69"></text></g></g><g transform="translate(-46,-117) scale(1,1)"><g><path fill="none" stroke="none"/><text fill="#000000" stroke="none" font-family="Arial" font-size="13px" font-style="normal" font-weight="normal" text-decoration="none" x="750.21630859375" y="322"></text></g></g><g transform="translate(-46,-117) scale(1,1)"><g><path fill="none" stroke="none"/><text fill="#000000" stroke="none" font-family="Arial" font-size="13px" font-style="normal" font-weight="normal" text-decoration="none" x="710.841796875" y="332">Owner/Admin</text></g></g><g transform="translate(-46,-117) scale(1,1)"><g><path fill="none" stroke="none"/><text fill="#000000" stroke="none" font-family="Arial" font-size="13px" font-style="normal" font-weight="normal" text-decoration="none" x="-63.5" y="173"></text></g></g><g transform="translate(-46,-117) scale(1,1)"><path fill="none" stroke="#000000" d="M 235 503 L 361 503" stroke-miterlimit="10"/></g><g transform="translate(-46,-117) scale(1,1)"><path fill="#000000" stroke="none" d="M 350.83732514237585 507.209517756016 L 361 503 L 350.83732514237585 498.790482243984"/></g><g transform="translate(-46,-117) scale(1,1)"><path fill="none" stroke="#000000" d="M 350.83732514237585 507.209517756016 L 361 503 L 350.83732514237585 498.790482243984 L 350.83732514237585 507.209517756016" stroke-miterlimit="10"/></g><g transform="translate(-46,-117) scale(1,1)"><g><path fill="none" stroke="none"/><text fill="#000000" stroke="none" font-family="Arial" font-size="13px" font-style="normal" font-weight="normal" text-decoration="none" x="272.5" y="493">Payment</text></g></g></g></svg>