<svg version="1.1" xmlns="http://www.w3.org/2000/svg" xmlns:xlink="http://www.w3.org/1999/xlink" width="767.4326171875" height="492"><defs/><g><text fill="#eeeeee" stroke="none" font-family="Arial" font-size="24px" font-style="normal" font-weight="normal" text-decoration="none" x="0" y="0">UNREGISTERED</text><text fill="#eeeeee" stroke="none" font-family="Arial" font-size="24px" font-style="normal" font-weight="normal" text-decoration="none" x="0" y="30">UNREGISTERED</text><text fill="#eeeeee" stroke="none" font-family="Arial" font-size="24px" font-style="normal" font-weight="normal" text-decoration="none" x="0" y="60">UNREGISTERED</text><text fill="#eeeeee" stroke="none" font-family="Arial" font-size="24px" font-style="normal" font-weight="normal" text-decoration="none" x="0" y="90">UNREGISTERED</text><text fill="#eeeeee" stroke="none" font-family="Arial" font-size="24px" font-style="normal" font-weight="normal" text-decoration="none" x="0" y="120">UNREGISTERED</text><text fill="#eeeeee" stroke="none" font-family="Arial" font-size="24px" font-style="normal" font-weight="normal" text-decoration="none" x="0" y="150">UNREGISTERED</text><text fill="#eeeeee" stroke="none" font-family="Arial" font-size="24px" font-style="normal" font-weight="normal" text-decoration="none" x="0" y="180">UNREGISTERED</text><text fill="#eeeeee" stroke="none" font-family="Arial" font-size="24px" font-style="normal" font-weight="normal" text-decoration="none" x="0" y="210">UNREGISTERED</text><text fill="#eeeeee" stroke="none" font-family="Arial" font-size="24px" font-style="normal" font-weight="normal" text-decoration="none" x="0" y="240">UNREGISTERED</text><text fill="#eeeeee" stroke="none" font-family="Arial" font-size="24px" font-style="normal" font-weight="normal" text-decoration="none" x="0" y="270">UNREGISTERED</text><text fill="#eeeeee" stroke="none" font-family="Arial" font-size="24px" font-style="normal" font-weight="normal" text-decoration="none" x="0" y="300">UNREGISTERED</text><text fill="#eeeeee" stroke="none" font-family="Arial" font-size="24px" font-style="normal" font-weight="normal" text-decoration="none" x="0" y="330">UNREGISTERED</text><text fill="#eeeeee" stroke="none" font-family="Arial" font-size="24px" font-style="normal" font-weight="normal" text-decoration="none" x="0" y="360">UNREGISTERED</text><text fill="#eeeeee" stroke="none" font-family="Arial" font-size="24px" font-style="normal" font-weight="normal" text-decoration="none" x="0" y="390">UNREGISTERED</text><text fill="#eeeeee" stroke="none" font-family="Arial" font-size="24px" font-style="normal" font-weight="normal" text-decoration="none" x="0" y="420">UNREGISTERED</text><text fill="#eeeeee" stroke="none" font-family="Arial" font-size="24px" font-style="normal" font-weight="normal" text-decoration="none" x="0" y="450">UNREGISTERED</text><text fill="#eeeeee" stroke="none" font-family="Arial" font-size="24px" font-style="normal" font-weight="normal" text-decoration="none" x="0" y="480">UNREGISTERED</text><text fill="#eeeeee" stroke="none" font-family="Arial" font-size="24px" font-style="normal" font-weight="normal" text-decoration="none" x="200" y="0">UNREGISTERED</text><text fill="#eeeeee" stroke="none" font-family="Arial" font-size="24px" font-style="normal" font-weight="normal" text-decoration="none" x="200" y="30">UNREGISTERED</text><text fill="#eeeeee" stroke="none" font-family="Arial" font-size="24px" font-style="normal" font-weight="normal" text-decoration="none" x="200" y="60">UNREGISTERED</text><text fill="#eeeeee" stroke="none" font-family="Arial" font-size="24px" font-style="normal" font-weight="normal" text-decoration="none" x="200" y="90">UNREGISTERED</text><text fill="#eeeeee" stroke="none" font-family="Arial" font-size="24px" font-style="normal" font-weight="normal" text-decoration="none" x="200" y="120">UNREGISTERED</text><text fill="#eeeeee" stroke="none" font-family="Arial" font-size="24px" font-style="normal" font-weight="normal" text-decoration="none" x="200" y="150">UNREGISTERED</text><text fill="#eeeeee" stroke="none" font-family="Arial" font-size="24px" font-style="normal" font-weight="normal" text-decoration="none" x="200" y="180">UNREGISTERED</text><text fill="#eeeeee" stroke="none" font-family="Arial" font-size="24px" font-style="normal" font-weight="normal" text-decoration="none" x="200" y="210">UNREGISTERED</text><text fill="#eeeeee" stroke="none" font-family="Arial" font-size="24px" font-style="normal" font-weight="normal" text-decoration="none" x="200" y="240">UNREGISTERED</text><text fill="#eeeeee" stroke="none" font-family="Arial" font-size="24px" font-style="normal" font-weight="normal" text-decoration="none" x="200" y="270">UNREGISTERED</text><text fill="#eeeeee" stroke="none" font-family="Arial" font-size="24px" font-style="normal" font-weight="normal" text-decoration="none" x="200" y="300">UNREGISTERED</text><text fill="#eeeeee" stroke="none" font-family="Arial" font-size="24px" font-style="normal" font-weight="normal" text-decoration="none" x="200" y="330">UNREGISTERED</text><text fill="#eeeeee" stroke="none" font-family="Arial" font-size="24px" font-style="normal" font-weight="normal" text-decoration="none" x="200" y="360">UNREGISTERED</text><text fill="#eeeeee" stroke="none" font-family="Arial" font-size="24px" font-style="normal" font-weight="normal" text-decoration="none" x="200" y="390">UNREGISTERED</text><text fill="#eeeeee" stroke="none" font-family="Arial" font-size="24px" font-style="normal" font-weight="normal" text-decoration="none" x="200" y="420">UNREGISTERED</text><text fill="#eeeeee" stroke="none" font-family="Arial" font-size="24px" font-style="normal" font-weight="normal" text-decoration="none" x="200" y="450">UNREGISTERED</text><text fill="#eeeeee" stroke="none" font-family="Arial" font-size="24px" font-style="normal" font-weight="normal" text-decoration="none" x="200" y="480">UNREGISTERED</text><text fill="#eeeeee" stroke="none" font-family="Arial" font-size="24px" font-style="normal" font-weight="normal" text-decoration="none" x="400" y="0">UNREGISTERED</text><text fill="#eeeeee" stroke="none" font-family="Arial" font-size="24px" font-style="normal" font-weight="normal" text-decoration="none" x="400" y="30">UNREGISTERED</text><text fill="#eeeeee" stroke="none" font-family="Arial" font-size="24px" font-style="normal" font-weight="normal" text-decoration="none" x="400" y="60">UNREGISTERED</text><text fill="#eeeeee" stroke="none" font-family="Arial" font-size="24px" font-style="normal" font-weight="normal" text-decoration="none" x="400" y="90">UNREGISTERED</text><text fill="#eeeeee" stroke="none" font-family="Arial" font-size="24px" font-style="normal" font-weight="normal" text-decoration="none" x="400" y="120">UNREGISTERED</text><text fill="#eeeeee" stroke="none" font-family="Arial" font-size="24px" font-style="normal" font-weight="normal" text-decoration="none" x="400" y="150">UNREGISTERED</text><text fill="#eeeeee" stroke="none" font-family="Arial" font-size="24px" font-style="normal" font-weight="normal" text-decoration="none" x="400" y="180">UNREGISTERED</text><text fill="#eeeeee" stroke="none" font-family="Arial" font-size="24px" font-style="normal" font-weight="normal" text-decoration="none" x="400" y="210">UNREGISTERED</text><text fill="#eeeeee" stroke="none" font-family="Arial" font-size="24px" font-style="normal" font-weight="normal" text-decoration="none" x="400" y="240">UNREGISTERED</text><text fill="#eeeeee" stroke="none" font-family="Arial" font-size="24px" font-style="normal" font-weight="normal" text-decoration="none" x="400" y="270">UNREGISTERED</text><text fill="#eeeeee" stroke="none" font-family="Arial" font-size="24px" font-style="normal" font-weight="normal" text-decoration="none" x="400" y="300">UNREGISTERED</text><text fill="#eeeeee" stroke="none" font-family="Arial" font-size="24px" font-style="normal" font-weight="normal" text-decoration="none" x="400" y="330">UNREGISTERED</text><text fill="#eeeeee" stroke="none" font-family="Arial" font-size="24px" font-style="normal" font-weight="normal" text-decoration="none" x="400" y="360">UNREGISTERED</text><text fill="#eeeeee" stroke="none" font-family="Arial" font-size="24px" font-style="normal" font-weight="normal" text-decoration="none" x="400" y="390">UNREGISTERED</text><text fill="#eeeeee" stroke="none" font-family="Arial" font-size="24px" font-style="normal" font-weight="normal" text-decoration="none" x="400" y="420">UNREGISTERED</text><text fill="#eeeeee" stroke="none" font-family="Arial" font-size="24px" font-style="normal" font-weight="normal" text-decoration="none" x="400" y="450">UNREGISTERED</text><text fill="#eeeeee" stroke="none" font-family="Arial" font-size="24px" font-style="normal" font-weight="normal" text-decoration="none" x="400" y="480">UNREGISTERED</text><text fill="#eeeeee" stroke="none" font-family="Arial" font-size="24px" font-style="normal" font-weight="normal" text-decoration="none" x="600" y="0">UNREGISTERED</text><text fill="#eeeeee" stroke="none" font-family="Arial" font-size="24px" font-style="normal" font-weight="normal" text-decoration="none" x="600" y="30">UNREGISTERED</text><text fill="#eeeeee" stroke="none" font-family="Arial" font-size="24px" font-style="normal" font-weight="normal" text-decoration="none" x="600" y="60">UNREGISTERED</text><text fill="#eeeeee" stroke="none" font-family="Arial" font-size="24px" font-style="normal" font-weight="normal" text-decoration="none" x="600" y="90">UNREGISTERED</text><text fill="#eeeeee" stroke="none" font-family="Arial" font-size="24px" font-style="normal" font-weight="normal" text-decoration="none" x="600" y="120">UNREGISTERED</text><text fill="#eeeeee" stroke="none" font-family="Arial" font-size="24px" font-style="normal" font-weight="normal" text-decoration="none" x="600" y="150">UNREGISTERED</text><text fill="#eeeeee" stroke="none" font-family="Arial" font-size="24px" font-style="normal" font-weight="normal" text-decoration="none" x="600" y="180">UNREGISTERED</text><text fill="#eeeeee" stroke="none" font-family="Arial" font-size="24px" font-style="normal" font-weight="normal" text-decoration="none" x="600" y="210">UNREGISTERED</text><text fill="#eeeeee" stroke="none" font-family="Arial" font-size="24px" font-style="normal" font-weight="normal" text-decoration="none" x="600" y="240">UNREGISTERED</text><text fill="#eeeeee" stroke="none" font-family="Arial" font-size="24px" font-style="normal" font-weight="normal" text-decoration="none" x="600" y="270">UNREGISTERED</text><text fill="#eeeeee" stroke="none" font-family="Arial" font-size="24px" font-style="normal" font-weight="normal" text-decoration="none" x="600" y="300">UNREGISTERED</text><text fill="#eeeeee" stroke="none" font-family="Arial" font-size="24px" font-style="normal" font-weight="normal" text-decoration="none" x="600" y="330">UNREGISTERED</text><text fill="#eeeeee" stroke="none" font-family="Arial" font-size="24px" font-style="normal" font-weight="normal" text-decoration="none" x="600" y="360">UNREGISTERED</text><text fill="#eeeeee" stroke="none" font-family="Arial" font-size="24px" font-style="normal" font-weight="normal" text-decoration="none" x="600" y="390">UNREGISTERED</text><text fill="#eeeeee" stroke="none" font-family="Arial" font-size="24px" font-style="normal" font-weight="normal" text-decoration="none" x="600" y="420">UNREGISTERED</text><text fill="#eeeeee" stroke="none" font-family="Arial" font-size="24px" font-style="normal" font-weight="normal" text-decoration="none" x="600" y="450">UNREGISTERED</text><text fill="#eeeeee" stroke="none" font-family="Arial" font-size="24px" font-style="normal" font-weight="normal" text-decoration="none" x="600" y="480">UNREGISTERED</text><g transform="translate(-5,-54) scale(1,1)"><rect fill="#C0C0C0" stroke="none" x="87" y="71" width="106.4326171875" height="32" opacity="0.2"/></g><g transform="translate(-5,-54) scale(1,1)"><rect fill="#ffffff" stroke="none" x="80" y="64" width="106.4326171875" height="32"/></g><g transform="translate(-5,-54) scale(1,1)"><path fill="none" stroke="#000000" d="M 80 64 L 186.4326171875 64 L 186.4326171875 96 L 80 96 L 80 64 Z Z" stroke-miterlimit="10"/></g><g transform="translate(-5,-54) scale(1,1)"><g><path fill="none" stroke="none"/><text fill="#000000" stroke="none" font-family="Arial" font-size="13px" font-style="normal" font-weight="normal" text-decoration="none" x="133.21630859375" y="75"></text></g></g><g transform="translate(-5,-54) scale(1,1)"><g><path fill="none" stroke="none"/><text fill="#000000" stroke="none" font-family="Arial" font-size="13px" font-style="normal" font-weight="normal" text-decoration="none" x="133.21630859375" y="75"></text></g></g><g transform="translate(-5,-54) scale(1,1)"><g><path fill="none" stroke="none"/><text fill="#000000" stroke="none" font-family="Arial" font-size="13px" font-style="normal" font-weight="normal" text-decoration="none" x="133.21630859375" y="75"></text></g></g><g transform="translate(-5,-54) scale(1,1)"><g><path fill="none" stroke="none"/><text fill="#000000" stroke="none" font-family="Arial" font-size="13px" font-style="normal" font-weight="normal" text-decoration="none" x="116.59814453125" y="85">Client</text></g></g><g transform="translate(-5,-54) scale(1,1)"><g><path fill="none" stroke="none"/><text fill="#000000" stroke="none" font-family="Arial" font-size="13px" font-style="normal" font-weight="normal" text-decoration="none" x="-48.5" y="-98"></text></g></g><g transform="translate(-5,-54) scale(1,1)"><path fill="#C0C0C0" stroke="none" d="M 121 207 L 174.18994140625 207 Q 184.18994140625 207 184.18994140625 217 L 184.18994140625 278 Q 184.18994140625 288 174.18994140625 288 L 121 288 Q 111 288 111 278 L 111 217 Q 111 207 121 207 Z" opacity="0.2"/></g><g transform="translate(-5,-54) scale(1,1)"><path fill="#ffffff" stroke="none" d="M 114 200 L 167.18994140625 200 Q 177.18994140625 200 177.18994140625 210 L 177.18994140625 271 Q 177.18994140625 281 167.18994140625 281 L 114 281 Q 104 281 104 271 L 104 210 Q 104 200 114 200 Z"/></g><g transform="translate(-5,-54) scale(1,1)"><path fill="none" stroke="#000000" d="M 114 200 L 167.18994140625 200 Q 177.18994140625 200 177.18994140625 210 L 177.18994140625 271 Q 177.18994140625 281 167.18994140625 281 L 114 281 Q 104 281 104 271 L 104 210 Q 104 200 114 200 Z" stroke-miterlimit="10"/></g><g transform="translate(-5,-54) scale(1,1)"><path fill="none" stroke="#000000" d="M 104 223 L 177.18994140625 223" stroke-miterlimit="10"/></g><g transform="translate(-5,-54) scale(1,1)"><g><path fill="none" stroke="none"/><text fill="#000000" stroke="none" font-family="Arial" font-size="13px" font-style="normal" font-weight="normal" text-decoration="none" x="122.529541015625" y="242.5">create</text><text fill="#000000" stroke="none" font-family="Arial" font-size="13px" font-style="normal" font-weight="normal" text-decoration="none" x="128.6708984375" y="254.5">new</text><text fill="#000000" stroke="none" font-family="Arial" font-size="13px" font-style="normal" font-weight="normal" text-decoration="none" x="123.976806640625" y="269">Client</text></g></g><g transform="translate(-5,-54) scale(1,1)"><g><path fill="none" stroke="none"/><text fill="#000000" stroke="none" font-family="Arial" font-size="13px" font-style="normal" font-weight="normal" text-decoration="none" x="140.594970703125" y="211"></text></g></g><g transform="translate(-5,-54) scale(1,1)"><path fill="none" stroke="#000000" d="M 122 96 L 122 200" stroke-miterlimit="10"/></g><g transform="translate(-5,-54) scale(1,1)"><path fill="#000000" stroke="none" d="M 117.79048224398402 189.83732514237585 L 122 200 L 126.20951775601598 189.83732514237585"/></g><g transform="translate(-5,-54) scale(1,1)"><path fill="none" stroke="#000000" d="M 117.79048224398402 189.83732514237585 L 122 200 L 126.20951775601598 189.83732514237585 L 117.79048224398402 189.83732514237585" stroke-miterlimit="10"/></g><g transform="translate(-5,-54) scale(1,1)"><g><path fill="none" stroke="none"/><text fill="#000000" stroke="none" font-family="Arial" font-size="13px" font-style="normal" font-weight="normal" text-decoration="none" x="24.61181640625" y="146">Client details</text></g></g><g transform="translate(-5,-54) scale(1,1)"><path fill="none" stroke="#000000" d="M 177 254 L 296 254" stroke-miterlimit="10"/></g><g transform="translate(-5,-54) scale(1,1)"><path fill="#000000" stroke="none" d="M 285.83732514237585 258.209517756016 L 296 254 L 285.83732514237585 249.790482243984"/></g><g transform="translate(-5,-54) scale(1,1)"><path fill="none" stroke="#000000" d="M 285.83732514237585 258.209517756016 L 296 254 L 285.83732514237585 249.790482243984 L 285.83732514237585 258.209517756016" stroke-miterlimit="10"/></g><g transform="translate(-5,-54) scale(1,1)"><g><path fill="none" stroke="none"/><text fill="#000000" stroke="none" font-family="Arial" font-size="13px" font-style="normal" font-weight="normal" text-decoration="none" x="197.5" y="244">Client Details</text></g></g><g transform="translate(-5,-54) scale(1,1)"><path fill="#C0C0C0" stroke="none" d="M 337 423 L 413 423 Q 423 423 423 433 L 423 481 Q 423 491 413 491 L 337 491 Q 327 491 327 481 L 327 433 Q 327 423 337 423 Z" opacity="0.2"/></g><g transform="translate(-5,-54) scale(1,1)"><path fill="#ffffff" stroke="none" d="M 330 416 L 406 416 Q 416 416 416 426 L 416 474 Q 416 484 406 484 L 330 484 Q 320 484 320 474 L 320 426 Q 320 416 330 416 Z"/></g><g transform="translate(-5,-54) scale(1,1)"><path fill="none" stroke="#000000" d="M 330 416 L 406 416 Q 416 416 416 426 L 416 474 Q 416 484 406 484 L 330 484 Q 320 484 320 474 L 320 426 Q 320 416 330 416 Z" stroke-miterlimit="10"/></g><g transform="translate(-5,-54) scale(1,1)"><path fill="none" stroke="#000000" d="M 320 439 L 416 439" stroke-miterlimit="10"/></g><g transform="translate(-5,-54) scale(1,1)"><g><path fill="none" stroke="none"/><text fill="#000000" stroke="none" font-family="Arial" font-size="13px" font-style="normal" font-weight="normal" text-decoration="none" x="345.595947265625" y="459">Renting</text><text fill="#000000" stroke="none" font-family="Arial" font-size="13px" font-style="normal" font-weight="normal" text-decoration="none" x="351.140625" y="472">Office</text></g></g><g transform="translate(-5,-54) scale(1,1)"><g><path fill="none" stroke="none"/><text fill="#000000" stroke="none" font-family="Arial" font-size="13px" font-style="normal" font-weight="normal" text-decoration="none" x="368" y="427"></text></g></g><g transform="translate(-5,-54) scale(1,1)"><rect fill="#C0C0C0" stroke="none" x="95" y="375" width="106.4326171875" height="168" opacity="0.2"/></g><g transform="translate(-5,-54) scale(1,1)"><rect fill="#ffffff" stroke="none" x="88" y="368" width="106.4326171875" height="168"/></g><g transform="translate(-5,-54) scale(1,1)"><path fill="none" stroke="#000000" d="M 88 368 L 194.4326171875 368 L 194.4326171875 536 L 88 536 L 88 368 Z Z" stroke-miterlimit="10"/></g><g transform="translate(-5,-54) scale(1,1)"><g><path fill="none" stroke="none"/><text fill="#000000" stroke="none" font-family="Arial" font-size="13px" font-style="normal" font-weight="normal" text-decoration="none" x="141.21630859375" y="379"></text></g></g><g transform="translate(-5,-54) scale(1,1)"><g><path fill="none" stroke="none"/><text fill="#000000" stroke="none" font-family="Arial" font-size="13px" font-style="normal" font-weight="normal" text-decoration="none" x="141.21630859375" y="379"></text></g></g><g transform="translate(-5,-54) scale(1,1)"><g><path fill="none" stroke="none"/><text fill="#000000" stroke="none" font-family="Arial" font-size="13px" font-style="normal" font-weight="normal" text-decoration="none" x="141.21630859375" y="379"></text></g></g><g transform="translate(-5,-54) scale(1,1)"><g><path fill="none" stroke="none"/><text fill="#000000" stroke="none" font-family="Arial" font-size="13px" font-style="normal" font-weight="normal" text-decoration="none" x="124.59814453125" y="389">Client</text></g></g><g transform="translate(-5,-54) scale(1,1)"><g><path fill="none" stroke="none"/><text fill="#000000" stroke="none" font-family="Arial" font-size="13px" font-style="normal" font-weight="normal" text-decoration="none" x="-0.5" y="-2"></text></g></g><g transform="translate(-5,-54) scale(1,1)"><path fill="none" stroke="#000000" d="M 194 400 L 344 400 M 344 400 A 8 8 0 0 1 352 408 L 352 416" stroke-miterlimit="10"/></g><g transform="translate(-5,-54) scale(1,1)"><path fill="#000000" stroke="none" d="M 347.790482243984 405.83732514237585 L 352 416 L 356.209517756016 405.83732514237585"/></g><g transform="translate(-5,-54) scale(1,1)"><path fill="none" stroke="#000000" d="M 347.790482243984 405.83732514237585 L 352 416 L 356.209517756016 405.83732514237585 L 347.790482243984 405.83732514237585" stroke-miterlimit="10"/></g><g transform="translate(-5,-54) scale(1,1)"><g><path fill="none" stroke="none"/><text fill="#000000" stroke="none" font-family="Arial" font-size="13px" font-style="normal" font-weight="normal" text-decoration="none" x="199.5" y="394">Details of cubicles required </text></g></g><g transform="translate(-5,-54) scale(1,1)"><path fill="none" stroke="#000000" d="M 194 480 L 320 480" stroke-miterlimit="10"/></g><g transform="translate(-5,-54) scale(1,1)"><path fill="#000000" stroke="none" d="M 309.83732514237585 484.209517756016 L 320 480 L 309.83732514237585 475.790482243984"/></g><g transform="translate(-5,-54) scale(1,1)"><path fill="none" stroke="#000000" d="M 309.83732514237585 484.209517756016 L 320 480 L 309.83732514237585 475.790482243984 L 309.83732514237585 484.209517756016" stroke-miterlimit="10"/></g><g transform="translate(-5,-54) scale(1,1)"><g><path fill="none" stroke="none"/><text fill="#000000" stroke="none" font-family="Arial" font-size="13px" font-style="normal" font-weight="normal" text-decoration="none" x="203.5" y="470">Selecting Location</text></g></g><g transform="translate(-5,-54) scale(1,1)"><path fill="none" stroke="#000000" d="M 194 512 L 336 512 M 336 512 A 8 8 0 0 0 344 504 L 344 484" stroke-miterlimit="10"/></g><g transform="translate(-5,-54) scale(1,1)"><path fill="#000000" stroke="none" d="M 348.209517756016 494.16267485762415 L 344 484 L 339.790482243984 494.16267485762415"/></g><g transform="translate(-5,-54) scale(1,1)"><path fill="none" stroke="#000000" d="M 348.209517756016 494.16267485762415 L 344 484 L 339.790482243984 494.16267485762415 L 348.209517756016 494.16267485762415" stroke-miterlimit="10"/></g><g transform="translate(-5,-54) scale(1,1)"><g><path fill="none" stroke="none"/><text fill="#000000" stroke="none" font-family="Arial" font-size="13px" font-style="normal" font-weight="normal" text-decoration="none" x="214.5" y="531">Duration of the stay</text></g></g><g transform="translate(-5,-54) scale(1,1)"><rect fill="#C0C0C0" stroke="none" x="663" y="255" width="106.4326171875" height="32" opacity="0.2"/></g><g transform="translate(-5,-54) scale(1,1)"><rect fill="#ffffff" stroke="none" x="656" y="248" width="106.4326171875" height="32"/></g><g transform="translate(-5,-54) scale(1,1)"><path fill="none" stroke="#000000" d="M 656 248 L 762.4326171875 248 L 762.4326171875 280 L 656 280 L 656 248 Z Z" stroke-miterlimit="10"/></g><g transform="translate(-5,-54) scale(1,1)"><g><path fill="none" stroke="none"/><text fill="#000000" stroke="none" font-family="Arial" font-size="13px" font-style="normal" font-weight="normal" text-decoration="none" x="709.21630859375" y="259"></text></g></g><g transform="translate(-5,-54) scale(1,1)"><g><path fill="none" stroke="none"/><text fill="#000000" stroke="none" font-family="Arial" font-size="13px" font-style="normal" font-weight="normal" text-decoration="none" x="709.21630859375" y="259"></text></g></g><g transform="translate(-5,-54) scale(1,1)"><g><path fill="none" stroke="none"/><text fill="#000000" stroke="none" font-family="Arial" font-size="13px" font-style="normal" font-weight="normal" text-decoration="none" x="709.21630859375" y="259"></text></g></g><g transform="translate(-5,-54) scale(1,1)"><g><path fill="none" stroke="none"/><text fill="#000000" stroke="none" font-family="Arial" font-size="13px" font-style="normal" font-weight="normal" text-decoration="none" x="669.841796875" y="269">Owner/Admin</text></g></g><g transform="translate(-5,-54) scale(1,1)"><g><path fill="none" stroke="none"/><text fill="#000000" stroke="none" font-family="Arial" font-size="13px" font-style="normal" font-weight="normal" text-decoration="none" x="-104.5" y="110"></text></g></g><g transform="translate(-5,-54) scale(1,1)"><path fill="none" stroke="#000000" d="M 194 440 L 320 440" stroke-miterlimit="10"/></g><g transform="translate(-5,-54) scale(1,1)"><path fill="#000000" stroke="none" d="M 309.83732514237585 444.209517756016 L 320 440 L 309.83732514237585 435.790482243984"/></g><g transform="translate(-5,-54) scale(1,1)"><path fill="none" stroke="#000000" d="M 309.83732514237585 444.209517756016 L 320 440 L 309.83732514237585 435.790482243984 L 309.83732514237585 444.209517756016" stroke-miterlimit="10"/></g><g transform="translate(-5,-54) scale(1,1)"><g><path fill="none" stroke="none"/><text fill="#000000" stroke="none" font-family="Arial" font-size="13px" font-style="normal" font-weight="normal" text-decoration="none" x="231.5" y="430">Payment</text></g></g><g transform="translate(-5,-54) scale(1,1)"><rect fill="#C0C0C0" stroke="none" x="303" y="239" width="111" height="32" opacity="0.2"/></g><g transform="translate(-5,-54) scale(1,1)"><rect fill="#ffffff" stroke="none" x="296" y="232" width="111" height="32"/></g><g transform="translate(-5,-54) scale(1,1)"><path fill="none" stroke="#000000" d="M 296 232 L 296 264" stroke-miterlimit="10"/></g><g transform="translate(-5,-54) scale(1,1)"><path fill="none" stroke="#000000" d="M 296 232 L 407 232" stroke-miterlimit="10"/></g><g transform="translate(-5,-54) scale(1,1)"><path fill="none" stroke="#000000" d="M 296 264 L 407 264" stroke-miterlimit="10"/></g><g transform="translate(-5,-54) scale(1,1)"><path fill="none" stroke="#000000" d="M 306 232 L 306 264" stroke-miterlimit="10"/></g><g transform="translate(-5,-54) scale(1,1)"><g><path fill="none" stroke="none"/><text fill="#000000" stroke="none" font-family="Arial" font-size="13px" font-style="normal" font-weight="normal" text-decoration="none" x="327.602294921875" y="253">Client File</text></g></g><g transform="translate(-5,-54) scale(1,1)"><g><path fill="none" stroke="none"/><text fill="#000000" stroke="none" font-family="Arial" font-size="13px" font-style="normal" font-weight="normal" text-decoration="none" x="300.5" y="248"></text></g></g></g></svg>